<mxfile host="app.diagrams.net" modified="2023-05-28T02:50:27.711Z" agent="Mozilla/5.0 (Windows NT 10.0; Win64; x64) AppleWebKit/537.36 (KHTML, like Gecko) Chrome/113.0.0.0 Safari/537.36" etag="GwxnUmdyhdLq29P3Zde9" version="21.3.4" type="device">
  <diagram id="C5RBs43oDa-KdzZeNtuy" name="Page-1">
    <mxGraphModel dx="778" dy="401" grid="1" gridSize="10" guides="1" tooltips="1" connect="1" arrows="1" fold="1" page="1" pageScale="1" pageWidth="827" pageHeight="1169" math="0" shadow="0">
      <root>
        <mxCell id="WIyWlLk6GJQsqaUBKTNV-0" />
        <mxCell id="WIyWlLk6GJQsqaUBKTNV-1" parent="WIyWlLk6GJQsqaUBKTNV-0" />
        <mxCell id="o6iEz9svOuSVI9pk4N0p-0" value="" style="edgeStyle=orthogonalEdgeStyle;rounded=0;orthogonalLoop=1;jettySize=auto;html=1;fontFamily=宋体;strokeWidth=0.5;" parent="WIyWlLk6GJQsqaUBKTNV-1" source="o6iEz9svOuSVI9pk4N0p-1" target="o6iEz9svOuSVI9pk4N0p-3" edge="1">
          <mxGeometry relative="1" as="geometry" />
        </mxCell>
        <mxCell id="o6iEz9svOuSVI9pk4N0p-1" value="开始" style="strokeWidth=0.5;html=1;shape=mxgraph.flowchart.terminator;whiteSpace=wrap;fontFamily=宋体;" parent="WIyWlLk6GJQsqaUBKTNV-1" vertex="1">
          <mxGeometry x="422.25" y="410" width="115" height="50" as="geometry" />
        </mxCell>
        <mxCell id="o6iEz9svOuSVI9pk4N0p-3" value="接收创建证据需要的参数" style="whiteSpace=wrap;html=1;strokeWidth=0.5;fontFamily=宋体;" parent="WIyWlLk6GJQsqaUBKTNV-1" vertex="1">
          <mxGeometry x="390" y="500" width="179.5" height="40" as="geometry" />
        </mxCell>
        <mxCell id="o6iEz9svOuSVI9pk4N0p-10" value="" style="edgeStyle=orthogonalEdgeStyle;rounded=0;orthogonalLoop=1;jettySize=auto;html=1;exitX=0.5;exitY=1;exitDx=0;exitDy=0;fontFamily=宋体;strokeWidth=0.5;" parent="WIyWlLk6GJQsqaUBKTNV-1" source="o6iEz9svOuSVI9pk4N0p-3" target="o6iEz9svOuSVI9pk4N0p-14" edge="1">
          <mxGeometry relative="1" as="geometry">
            <mxPoint x="480.25" y="530" as="sourcePoint" />
            <Array as="points" />
          </mxGeometry>
        </mxCell>
        <mxCell id="o6iEz9svOuSVI9pk4N0p-20" value="" style="edgeStyle=orthogonalEdgeStyle;rounded=0;orthogonalLoop=1;jettySize=auto;html=1;entryX=0.5;entryY=0;entryDx=0;entryDy=0;fontFamily=宋体;strokeWidth=0.5;" parent="WIyWlLk6GJQsqaUBKTNV-1" source="o6iEz9svOuSVI9pk4N0p-14" edge="1">
          <mxGeometry relative="1" as="geometry">
            <mxPoint x="480.25999999999976" y="660" as="targetPoint" />
          </mxGeometry>
        </mxCell>
        <mxCell id="o6iEz9svOuSVI9pk4N0p-14" value="创建Evidence结构体数组" style="whiteSpace=wrap;html=1;strokeWidth=0.5;fontFamily=宋体;" parent="WIyWlLk6GJQsqaUBKTNV-1" vertex="1">
          <mxGeometry x="390.51" y="580" width="179.5" height="40" as="geometry" />
        </mxCell>
        <mxCell id="o6iEz9svOuSVI9pk4N0p-15" value="结束" style="strokeWidth=0.5;html=1;shape=mxgraph.flowchart.terminator;whiteSpace=wrap;fontFamily=宋体;" parent="WIyWlLk6GJQsqaUBKTNV-1" vertex="1">
          <mxGeometry x="420.15" y="1240" width="120.25" height="42" as="geometry" />
        </mxCell>
        <mxCell id="o6iEz9svOuSVI9pk4N0p-16" value="N" style="text;html=1;align=center;verticalAlign=middle;resizable=0;points=[];autosize=1;strokeColor=none;fillColor=none;fontFamily=宋体;strokeWidth=0.5;" parent="WIyWlLk6GJQsqaUBKTNV-1" vertex="1">
          <mxGeometry x="490" y="800" width="30" height="30" as="geometry" />
        </mxCell>
        <mxCell id="o6iEz9svOuSVI9pk4N0p-17" value="Y" style="text;html=1;align=center;verticalAlign=middle;resizable=0;points=[];autosize=1;strokeColor=none;fillColor=none;fontFamily=宋体;strokeWidth=0.5;" parent="WIyWlLk6GJQsqaUBKTNV-1" vertex="1">
          <mxGeometry x="330" y="730" width="30" height="30" as="geometry" />
        </mxCell>
        <mxCell id="o6iEz9svOuSVI9pk4N0p-60" style="edgeStyle=orthogonalEdgeStyle;rounded=0;orthogonalLoop=1;jettySize=auto;html=1;fontFamily=宋体;strokeWidth=0.5;" parent="WIyWlLk6GJQsqaUBKTNV-1" source="o6iEz9svOuSVI9pk4N0p-25" edge="1">
          <mxGeometry relative="1" as="geometry">
            <mxPoint x="480" y="1223.3102943157328" as="targetPoint" />
            <Array as="points">
              <mxPoint x="300" y="1223" />
            </Array>
          </mxGeometry>
        </mxCell>
        <mxCell id="o6iEz9svOuSVI9pk4N0p-25" value="返回error" style="whiteSpace=wrap;html=1;strokeWidth=0.5;fontFamily=宋体;" parent="WIyWlLk6GJQsqaUBKTNV-1" vertex="1">
          <mxGeometry x="260" y="870" width="80" height="40" as="geometry" />
        </mxCell>
        <mxCell id="o6iEz9svOuSVI9pk4N0p-43" value="" style="edgeStyle=orthogonalEdgeStyle;rounded=0;orthogonalLoop=1;jettySize=auto;html=1;fontFamily=宋体;strokeWidth=0.5;" parent="WIyWlLk6GJQsqaUBKTNV-1" source="o6iEz9svOuSVI9pk4N0p-34" target="o6iEz9svOuSVI9pk4N0p-42" edge="1">
          <mxGeometry relative="1" as="geometry" />
        </mxCell>
        <mxCell id="o6iEz9svOuSVI9pk4N0p-34" value="调用GetState方法获取区块链中的证据信息" style="whiteSpace=wrap;html=1;strokeWidth=0.5;fontFamily=宋体;" parent="WIyWlLk6GJQsqaUBKTNV-1" vertex="1">
          <mxGeometry x="390.52" y="660" width="179.5" height="40" as="geometry" />
        </mxCell>
        <mxCell id="o6iEz9svOuSVI9pk4N0p-48" style="edgeStyle=orthogonalEdgeStyle;rounded=0;orthogonalLoop=1;jettySize=auto;html=1;entryX=0.5;entryY=0;entryDx=0;entryDy=0;fontFamily=宋体;strokeWidth=0.5;" parent="WIyWlLk6GJQsqaUBKTNV-1" source="o6iEz9svOuSVI9pk4N0p-37" target="o6iEz9svOuSVI9pk4N0p-47" edge="1">
          <mxGeometry relative="1" as="geometry" />
        </mxCell>
        <mxCell id="o6iEz9svOuSVI9pk4N0p-37" value="调用Unmarshal方法将证据信息比特数组转换成Evidence结构体数组" style="whiteSpace=wrap;html=1;strokeWidth=0.5;fontFamily=宋体;" parent="WIyWlLk6GJQsqaUBKTNV-1" vertex="1">
          <mxGeometry x="390.52" y="830" width="179.5" height="50" as="geometry" />
        </mxCell>
        <mxCell id="o6iEz9svOuSVI9pk4N0p-45" style="edgeStyle=orthogonalEdgeStyle;rounded=0;orthogonalLoop=1;jettySize=auto;html=1;entryX=0.5;entryY=0;entryDx=0;entryDy=0;fontFamily=宋体;strokeWidth=0.5;" parent="WIyWlLk6GJQsqaUBKTNV-1" source="o6iEz9svOuSVI9pk4N0p-42" target="o6iEz9svOuSVI9pk4N0p-25" edge="1">
          <mxGeometry relative="1" as="geometry" />
        </mxCell>
        <mxCell id="o6iEz9svOuSVI9pk4N0p-46" style="edgeStyle=orthogonalEdgeStyle;rounded=0;orthogonalLoop=1;jettySize=auto;html=1;entryX=0.5;entryY=0;entryDx=0;entryDy=0;fontFamily=宋体;strokeWidth=0.5;" parent="WIyWlLk6GJQsqaUBKTNV-1" source="o6iEz9svOuSVI9pk4N0p-42" target="o6iEz9svOuSVI9pk4N0p-37" edge="1">
          <mxGeometry relative="1" as="geometry" />
        </mxCell>
        <mxCell id="o6iEz9svOuSVI9pk4N0p-42" value="调用GetState是否出错" style="rhombus;whiteSpace=wrap;html=1;strokeWidth=0.5;fontFamily=宋体;" parent="WIyWlLk6GJQsqaUBKTNV-1" vertex="1">
          <mxGeometry x="390" y="740" width="180" height="50" as="geometry" />
        </mxCell>
        <mxCell id="o6iEz9svOuSVI9pk4N0p-52" style="edgeStyle=orthogonalEdgeStyle;rounded=0;orthogonalLoop=1;jettySize=auto;html=1;entryX=0.5;entryY=0;entryDx=0;entryDy=0;fontFamily=宋体;strokeWidth=0.5;" parent="WIyWlLk6GJQsqaUBKTNV-1" source="o6iEz9svOuSVI9pk4N0p-47" target="o6iEz9svOuSVI9pk4N0p-50" edge="1">
          <mxGeometry relative="1" as="geometry" />
        </mxCell>
        <mxCell id="o6iEz9svOuSVI9pk4N0p-47" value="将新Evidence结构体添加到总Evidence结构体数组中" style="whiteSpace=wrap;html=1;strokeWidth=0.5;fontFamily=宋体;" parent="WIyWlLk6GJQsqaUBKTNV-1" vertex="1">
          <mxGeometry x="390.52" y="920" width="179.5" height="40" as="geometry" />
        </mxCell>
        <mxCell id="o6iEz9svOuSVI9pk4N0p-54" style="edgeStyle=orthogonalEdgeStyle;rounded=0;orthogonalLoop=1;jettySize=auto;html=1;entryX=0.5;entryY=0;entryDx=0;entryDy=0;fontFamily=宋体;strokeWidth=0.5;" parent="WIyWlLk6GJQsqaUBKTNV-1" source="o6iEz9svOuSVI9pk4N0p-50" target="o6iEz9svOuSVI9pk4N0p-53" edge="1">
          <mxGeometry relative="1" as="geometry" />
        </mxCell>
        <mxCell id="o6iEz9svOuSVI9pk4N0p-50" value="调用Marshal方法将结构体转换成比特数组" style="whiteSpace=wrap;html=1;strokeWidth=0.5;fontFamily=宋体;" parent="WIyWlLk6GJQsqaUBKTNV-1" vertex="1">
          <mxGeometry x="390" y="1000" width="179.5" height="40" as="geometry" />
        </mxCell>
        <mxCell id="o6iEz9svOuSVI9pk4N0p-58" style="edgeStyle=orthogonalEdgeStyle;rounded=0;orthogonalLoop=1;jettySize=auto;html=1;entryX=0.5;entryY=0;entryDx=0;entryDy=0;fontFamily=宋体;strokeWidth=0.5;" parent="WIyWlLk6GJQsqaUBKTNV-1" source="o6iEz9svOuSVI9pk4N0p-53" target="o6iEz9svOuSVI9pk4N0p-56" edge="1">
          <mxGeometry relative="1" as="geometry" />
        </mxCell>
        <mxCell id="o6iEz9svOuSVI9pk4N0p-53" value="调用PutState方法将比特数组写入账本" style="whiteSpace=wrap;html=1;strokeWidth=0.5;fontFamily=宋体;" parent="WIyWlLk6GJQsqaUBKTNV-1" vertex="1">
          <mxGeometry x="390.52" y="1080" width="179.5" height="40" as="geometry" />
        </mxCell>
        <mxCell id="o6iEz9svOuSVI9pk4N0p-59" style="edgeStyle=orthogonalEdgeStyle;rounded=0;orthogonalLoop=1;jettySize=auto;html=1;entryX=0.5;entryY=0;entryDx=0;entryDy=0;entryPerimeter=0;fontFamily=宋体;strokeWidth=0.5;" parent="WIyWlLk6GJQsqaUBKTNV-1" source="o6iEz9svOuSVI9pk4N0p-56" target="o6iEz9svOuSVI9pk4N0p-15" edge="1">
          <mxGeometry relative="1" as="geometry" />
        </mxCell>
        <mxCell id="o6iEz9svOuSVI9pk4N0p-56" value="返回success" style="whiteSpace=wrap;html=1;strokeWidth=0.5;fontFamily=宋体;" parent="WIyWlLk6GJQsqaUBKTNV-1" vertex="1">
          <mxGeometry x="390.53" y="1160" width="179.5" height="40" as="geometry" />
        </mxCell>
      </root>
    </mxGraphModel>
  </diagram>
</mxfile>
